<mxfile host="app.diagrams.net" modified="2024-07-17T14:46:43.286Z" agent="Mozilla/5.0 (X11; Linux x86_64) AppleWebKit/537.36 (KHTML, like Gecko) Chrome/126.0.0.0 Safari/537.36" etag="YMpW--8jPOVUTdtMqmnx" version="24.6.5" type="github">
  <diagram name="PÃ¡gina-1" id="RxgWlxhT6HdZIsI5FISV">
    <mxGraphModel dx="1434" dy="789" grid="1" gridSize="10" guides="1" tooltips="1" connect="1" arrows="1" fold="1" page="1" pageScale="1" pageWidth="827" pageHeight="1169" math="0" shadow="0">
      <root>
        <mxCell id="0" />
        <mxCell id="1" parent="0" />
        <mxCell id="5AxWNF5T02aPGYcBd2j5-55" value="King" style="swimlane;fontStyle=1;align=center;verticalAlign=top;childLayout=stackLayout;horizontal=1;startSize=26;horizontalStack=0;resizeParent=1;resizeParentMax=0;resizeLast=0;collapsible=1;marginBottom=0;whiteSpace=wrap;html=1;" parent="1" vertex="1">
          <mxGeometry x="250" y="422" width="220" height="110" as="geometry" />
        </mxCell>
        <mxCell id="5AxWNF5T02aPGYcBd2j5-56" value="-secret: String&lt;div&gt;+trueKing: boolean;&lt;/div&gt;" style="text;strokeColor=none;fillColor=none;align=left;verticalAlign=top;spacingLeft=4;spacingRight=4;overflow=hidden;rotatable=0;points=[[0,0.5],[1,0.5]];portConstraint=eastwest;whiteSpace=wrap;html=1;" parent="5AxWNF5T02aPGYcBd2j5-55" vertex="1">
          <mxGeometry y="26" width="220" height="34" as="geometry" />
        </mxCell>
        <mxCell id="5AxWNF5T02aPGYcBd2j5-57" value="" style="line;strokeWidth=1;fillColor=none;align=left;verticalAlign=middle;spacingTop=-1;spacingLeft=3;spacingRight=3;rotatable=0;labelPosition=right;points=[];portConstraint=eastwest;strokeColor=inherit;" parent="5AxWNF5T02aPGYcBd2j5-55" vertex="1">
          <mxGeometry y="60" width="220" height="10" as="geometry" />
        </mxCell>
        <mxCell id="5AxWNF5T02aPGYcBd2j5-58" value="+makeDecree(String):&amp;nbsp; &amp;nbsp;&lt;div&gt;+banish(String): boolean&amp;nbsp;&lt;/div&gt;" style="text;strokeColor=none;fillColor=none;align=left;verticalAlign=top;spacingLeft=4;spacingRight=4;overflow=hidden;rotatable=0;points=[[0,0.5],[1,0.5]];portConstraint=eastwest;whiteSpace=wrap;html=1;" parent="5AxWNF5T02aPGYcBd2j5-55" vertex="1">
          <mxGeometry y="70" width="220" height="40" as="geometry" />
        </mxCell>
        <mxCell id="8YMsaWUEQPvyWmvl6M6F-32" style="edgeStyle=orthogonalEdgeStyle;rounded=1;orthogonalLoop=1;jettySize=auto;html=1;exitX=0.5;exitY=0;exitDx=0;exitDy=0;entryX=0.75;entryY=1;entryDx=0;entryDy=0;curved=0;" parent="1" source="5AxWNF5T02aPGYcBd2j5-63" target="5AxWNF5T02aPGYcBd2j5-84" edge="1">
          <mxGeometry relative="1" as="geometry" />
        </mxCell>
        <mxCell id="5AxWNF5T02aPGYcBd2j5-63" value="Villager" style="swimlane;fontStyle=1;align=center;verticalAlign=top;childLayout=stackLayout;horizontal=1;startSize=26;horizontalStack=0;resizeParent=1;resizeParentMax=0;resizeLast=0;collapsible=1;marginBottom=0;whiteSpace=wrap;html=1;" parent="1" vertex="1">
          <mxGeometry x="1250" y="612" width="170" height="110" as="geometry" />
        </mxCell>
        <mxCell id="5AxWNF5T02aPGYcBd2j5-64" value="+boss: UpperClass;&lt;div&gt;+isSoldier: boolean;&lt;/div&gt;&lt;div&gt;+soldierType: Soldier;&lt;/div&gt;&lt;div&gt;+tools[]: Tool;&lt;/div&gt;" style="text;strokeColor=none;fillColor=none;align=left;verticalAlign=top;spacingLeft=4;spacingRight=4;overflow=hidden;rotatable=0;points=[[0,0.5],[1,0.5]];portConstraint=eastwest;whiteSpace=wrap;html=1;" parent="5AxWNF5T02aPGYcBd2j5-63" vertex="1">
          <mxGeometry y="26" width="170" height="64" as="geometry" />
        </mxCell>
        <mxCell id="5AxWNF5T02aPGYcBd2j5-65" value="" style="line;strokeWidth=1;fillColor=none;align=left;verticalAlign=middle;spacingTop=-1;spacingLeft=3;spacingRight=3;rotatable=0;labelPosition=right;points=[];portConstraint=eastwest;strokeColor=inherit;" parent="5AxWNF5T02aPGYcBd2j5-63" vertex="1">
          <mxGeometry y="90" width="170" height="20" as="geometry" />
        </mxCell>
        <mxCell id="8YMsaWUEQPvyWmvl6M6F-29" style="edgeStyle=orthogonalEdgeStyle;rounded=1;orthogonalLoop=1;jettySize=auto;html=1;exitX=0.25;exitY=0;exitDx=0;exitDy=0;entryX=0.25;entryY=1;entryDx=0;entryDy=0;curved=0;" parent="1" source="5AxWNF5T02aPGYcBd2j5-67" target="5AxWNF5T02aPGYcBd2j5-84" edge="1">
          <mxGeometry relative="1" as="geometry" />
        </mxCell>
        <mxCell id="5AxWNF5T02aPGYcBd2j5-67" value="Musician" style="swimlane;fontStyle=1;align=center;verticalAlign=top;childLayout=stackLayout;horizontal=1;startSize=26;horizontalStack=0;resizeParent=1;resizeParentMax=0;resizeLast=0;collapsible=1;marginBottom=0;whiteSpace=wrap;html=1;" parent="1" vertex="1">
          <mxGeometry x="810" y="612" width="180" height="68" as="geometry" />
        </mxCell>
        <mxCell id="5AxWNF5T02aPGYcBd2j5-68" value="+intstruments[]: Instruments;" style="text;strokeColor=none;fillColor=none;align=left;verticalAlign=top;spacingLeft=4;spacingRight=4;overflow=hidden;rotatable=0;points=[[0,0.5],[1,0.5]];portConstraint=eastwest;whiteSpace=wrap;html=1;" parent="5AxWNF5T02aPGYcBd2j5-67" vertex="1">
          <mxGeometry y="26" width="180" height="34" as="geometry" />
        </mxCell>
        <mxCell id="5AxWNF5T02aPGYcBd2j5-69" value="" style="line;strokeWidth=1;fillColor=none;align=left;verticalAlign=middle;spacingTop=-1;spacingLeft=3;spacingRight=3;rotatable=0;labelPosition=right;points=[];portConstraint=eastwest;strokeColor=inherit;" parent="5AxWNF5T02aPGYcBd2j5-67" vertex="1">
          <mxGeometry y="60" width="180" height="8" as="geometry" />
        </mxCell>
        <mxCell id="cL-bxxUgpNdBFjYDeyzz-24" style="edgeStyle=orthogonalEdgeStyle;rounded=1;orthogonalLoop=1;jettySize=auto;html=1;exitX=0.456;exitY=-0.017;exitDx=0;exitDy=0;entryX=0.5;entryY=1;entryDx=0;entryDy=0;exitPerimeter=0;curved=0;" parent="1" source="5AxWNF5T02aPGYcBd2j5-71" target="5AxWNF5T02aPGYcBd2j5-84" edge="1">
          <mxGeometry relative="1" as="geometry" />
        </mxCell>
        <mxCell id="5AxWNF5T02aPGYcBd2j5-71" value="Jester" style="swimlane;fontStyle=1;align=center;verticalAlign=top;childLayout=stackLayout;horizontal=1;startSize=26;horizontalStack=0;resizeParent=1;resizeParentMax=0;resizeLast=0;collapsible=1;marginBottom=0;whiteSpace=wrap;html=1;" parent="1" vertex="1">
          <mxGeometry x="1010" y="612" width="160" height="60" as="geometry" />
        </mxCell>
        <mxCell id="5AxWNF5T02aPGYcBd2j5-72" value="+jokes[]: String;" style="text;strokeColor=none;fillColor=none;align=left;verticalAlign=top;spacingLeft=4;spacingRight=4;overflow=hidden;rotatable=0;points=[[0,0.5],[1,0.5]];portConstraint=eastwest;whiteSpace=wrap;html=1;" parent="5AxWNF5T02aPGYcBd2j5-71" vertex="1">
          <mxGeometry y="26" width="160" height="26" as="geometry" />
        </mxCell>
        <mxCell id="5AxWNF5T02aPGYcBd2j5-73" value="" style="line;strokeWidth=1;fillColor=none;align=left;verticalAlign=middle;spacingTop=-1;spacingLeft=3;spacingRight=3;rotatable=0;labelPosition=right;points=[];portConstraint=eastwest;strokeColor=inherit;" parent="5AxWNF5T02aPGYcBd2j5-71" vertex="1">
          <mxGeometry y="52" width="160" height="8" as="geometry" />
        </mxCell>
        <mxCell id="YmxFgDObTr9srPSz1VW--3" style="edgeStyle=orthogonalEdgeStyle;rounded=1;orthogonalLoop=1;jettySize=auto;html=1;exitX=0.5;exitY=0;exitDx=0;exitDy=0;entryX=0.5;entryY=1;entryDx=0;entryDy=0;endArrow=none;endFill=0;curved=0;" edge="1" parent="1" source="5AxWNF5T02aPGYcBd2j5-76" target="8YMsaWUEQPvyWmvl6M6F-40">
          <mxGeometry relative="1" as="geometry">
            <Array as="points">
              <mxPoint x="810" y="860" />
              <mxPoint x="585" y="860" />
            </Array>
          </mxGeometry>
        </mxCell>
        <mxCell id="YmxFgDObTr9srPSz1VW--10" style="edgeStyle=orthogonalEdgeStyle;rounded=1;orthogonalLoop=1;jettySize=auto;html=1;exitX=0.5;exitY=0;exitDx=0;exitDy=0;entryX=0.25;entryY=1;entryDx=0;entryDy=0;curved=0;endArrow=none;endFill=0;" edge="1" parent="1" source="5AxWNF5T02aPGYcBd2j5-76" target="5AxWNF5T02aPGYcBd2j5-63">
          <mxGeometry relative="1" as="geometry">
            <Array as="points">
              <mxPoint x="810" y="860" />
              <mxPoint x="1293" y="860" />
            </Array>
          </mxGeometry>
        </mxCell>
        <mxCell id="5AxWNF5T02aPGYcBd2j5-76" value="&lt;div&gt;&lt;span style=&quot;background-color: initial;&quot;&gt;Soldier&lt;/span&gt;&lt;br&gt;&lt;/div&gt;" style="swimlane;fontStyle=1;align=center;verticalAlign=top;childLayout=stackLayout;horizontal=1;startSize=30;horizontalStack=0;resizeParent=1;resizeParentMax=0;resizeLast=0;collapsible=1;marginBottom=0;whiteSpace=wrap;html=1;" parent="1" vertex="1">
          <mxGeometry x="730" y="885" width="160" height="108" as="geometry" />
        </mxCell>
        <mxCell id="5AxWNF5T02aPGYcBd2j5-77" value="+rank: String;&lt;div&gt;+position: String;&lt;/div&gt;&lt;div&gt;+dailyTasks[]: String;&lt;/div&gt;&lt;div&gt;+weapons[]: Weapon&lt;/div&gt;" style="text;strokeColor=none;fillColor=none;align=left;verticalAlign=top;spacingLeft=4;spacingRight=4;overflow=hidden;rotatable=0;points=[[0,0.5],[1,0.5]];portConstraint=eastwest;whiteSpace=wrap;html=1;" parent="5AxWNF5T02aPGYcBd2j5-76" vertex="1">
          <mxGeometry y="30" width="160" height="70" as="geometry" />
        </mxCell>
        <mxCell id="5AxWNF5T02aPGYcBd2j5-78" value="" style="line;strokeWidth=1;fillColor=none;align=left;verticalAlign=middle;spacingTop=-1;spacingLeft=3;spacingRight=3;rotatable=0;labelPosition=right;points=[];portConstraint=eastwest;strokeColor=inherit;" parent="5AxWNF5T02aPGYcBd2j5-76" vertex="1">
          <mxGeometry y="100" width="160" height="8" as="geometry" />
        </mxCell>
        <mxCell id="5AxWNF5T02aPGYcBd2j5-80" value="&lt;u&gt;Kingdom&lt;/u&gt;" style="swimlane;fontStyle=1;align=center;verticalAlign=top;childLayout=stackLayout;horizontal=1;startSize=26;horizontalStack=0;resizeParent=1;resizeParentMax=0;resizeLast=0;collapsible=1;marginBottom=0;whiteSpace=wrap;html=1;" parent="1" vertex="1">
          <mxGeometry x="240" width="170" height="128" as="geometry" />
        </mxCell>
        <mxCell id="5AxWNF5T02aPGYcBd2j5-81" value="&lt;div&gt;&lt;u&gt;+name: String;&lt;/u&gt;&lt;/div&gt;&lt;div&gt;&lt;u&gt;+flag: String;&lt;/u&gt;&lt;/div&gt;&lt;div&gt;&lt;u&gt;+location: String;&lt;/u&gt;&lt;/div&gt;&lt;div&gt;&lt;u&gt;+currency: String;&lt;/u&gt;&lt;/div&gt;&lt;div&gt;&lt;u&gt;+decrees[]: String;&lt;/u&gt;&lt;/div&gt;&lt;div&gt;&lt;u&gt;+alliedKingdoms[]: Kingdom;&lt;/u&gt;&lt;/div&gt;" style="text;strokeColor=none;fillColor=none;align=left;verticalAlign=top;spacingLeft=4;spacingRight=4;overflow=hidden;rotatable=0;points=[[0,0.5],[1,0.5]];portConstraint=eastwest;whiteSpace=wrap;html=1;" parent="5AxWNF5T02aPGYcBd2j5-80" vertex="1">
          <mxGeometry y="26" width="170" height="94" as="geometry" />
        </mxCell>
        <mxCell id="5AxWNF5T02aPGYcBd2j5-82" value="" style="line;strokeWidth=1;fillColor=none;align=left;verticalAlign=middle;spacingTop=-1;spacingLeft=3;spacingRight=3;rotatable=0;labelPosition=right;points=[];portConstraint=eastwest;strokeColor=inherit;" parent="5AxWNF5T02aPGYcBd2j5-80" vertex="1">
          <mxGeometry y="120" width="170" height="8" as="geometry" />
        </mxCell>
        <mxCell id="5AxWNF5T02aPGYcBd2j5-84" value="&lt;b&gt;LowerClass&lt;/b&gt;&lt;br&gt;&lt;div&gt;{abstract}&lt;/div&gt;" style="swimlane;fontStyle=0;align=center;verticalAlign=top;childLayout=stackLayout;horizontal=1;startSize=55;horizontalStack=0;resizeParent=1;resizeParentMax=0;resizeLast=0;collapsible=0;marginBottom=0;html=1;whiteSpace=wrap;" parent="1" vertex="1">
          <mxGeometry x="990" y="412" width="140" height="83" as="geometry" />
        </mxCell>
        <mxCell id="5AxWNF5T02aPGYcBd2j5-85" value="+bow: boolean;" style="text;html=1;strokeColor=none;fillColor=none;align=left;verticalAlign=middle;spacingLeft=4;spacingRight=4;overflow=hidden;rotatable=0;points=[[0,0.5],[1,0.5]];portConstraint=eastwest;whiteSpace=wrap;" parent="5AxWNF5T02aPGYcBd2j5-84" vertex="1">
          <mxGeometry y="55" width="140" height="20" as="geometry" />
        </mxCell>
        <mxCell id="5AxWNF5T02aPGYcBd2j5-86" value="" style="line;strokeWidth=1;fillColor=none;align=left;verticalAlign=middle;spacingTop=-1;spacingLeft=3;spacingRight=3;rotatable=0;labelPosition=right;points=[];portConstraint=eastwest;" parent="5AxWNF5T02aPGYcBd2j5-84" vertex="1">
          <mxGeometry y="75" width="140" height="8" as="geometry" />
        </mxCell>
        <mxCell id="8YMsaWUEQPvyWmvl6M6F-4" style="edgeStyle=orthogonalEdgeStyle;rounded=1;orthogonalLoop=1;jettySize=auto;html=1;entryX=0;entryY=0.25;entryDx=0;entryDy=0;exitX=1;exitY=0.5;exitDx=0;exitDy=0;curved=0;dashed=1;" parent="1" source="cL-bxxUgpNdBFjYDeyzz-20" target="cL-bxxUgpNdBFjYDeyzz-21" edge="1">
          <mxGeometry relative="1" as="geometry">
            <mxPoint x="830" y="189.5" as="sourcePoint" />
            <mxPoint x="991" y="12" as="targetPoint" />
          </mxGeometry>
        </mxCell>
        <mxCell id="8YMsaWUEQPvyWmvl6M6F-9" style="edgeStyle=orthogonalEdgeStyle;rounded=1;orthogonalLoop=1;jettySize=auto;html=1;exitX=0.5;exitY=0;exitDx=0;exitDy=0;curved=0;entryX=0.5;entryY=1;entryDx=0;entryDy=0;" parent="1" source="8YMsaWUEQPvyWmvl6M6F-16" target="cL-bxxUgpNdBFjYDeyzz-17" edge="1">
          <mxGeometry relative="1" as="geometry">
            <mxPoint x="580" y="392.0000000000002" as="sourcePoint" />
            <Array as="points" />
            <mxPoint x="770" y="340" as="targetPoint" />
          </mxGeometry>
        </mxCell>
        <mxCell id="8YMsaWUEQPvyWmvl6M6F-10" style="edgeStyle=orthogonalEdgeStyle;rounded=1;orthogonalLoop=1;jettySize=auto;html=1;curved=0;" parent="1" target="cL-bxxUgpNdBFjYDeyzz-20" edge="1">
          <mxGeometry relative="1" as="geometry">
            <mxPoint x="1040" y="412" as="sourcePoint" />
            <mxPoint x="830" y="192" as="targetPoint" />
            <Array as="points">
              <mxPoint x="1040" y="392" />
              <mxPoint x="830" y="392" />
            </Array>
          </mxGeometry>
        </mxCell>
        <mxCell id="8YMsaWUEQPvyWmvl6M6F-16" value="UpperClass" style="swimlane;fontStyle=1;align=center;verticalAlign=top;childLayout=stackLayout;horizontal=1;startSize=30;horizontalStack=0;resizeParent=1;resizeParentMax=0;resizeLast=0;collapsible=1;marginBottom=0;whiteSpace=wrap;html=1;" parent="1" vertex="1">
          <mxGeometry x="660" y="420" width="220" height="100" as="geometry" />
        </mxCell>
        <mxCell id="8YMsaWUEQPvyWmvl6M6F-17" value="+voteValue: int;" style="text;strokeColor=none;fillColor=none;align=left;verticalAlign=top;spacingLeft=4;spacingRight=4;overflow=hidden;rotatable=0;points=[[0,0.5],[1,0.5]];portConstraint=eastwest;whiteSpace=wrap;html=1;" parent="8YMsaWUEQPvyWmvl6M6F-16" vertex="1">
          <mxGeometry y="30" width="220" height="30" as="geometry" />
        </mxCell>
        <mxCell id="8YMsaWUEQPvyWmvl6M6F-18" value="" style="line;strokeWidth=1;fillColor=none;align=left;verticalAlign=middle;spacingTop=-1;spacingLeft=3;spacingRight=3;rotatable=0;labelPosition=right;points=[];portConstraint=eastwest;strokeColor=inherit;" parent="8YMsaWUEQPvyWmvl6M6F-16" vertex="1">
          <mxGeometry y="60" width="220" height="10" as="geometry" />
        </mxCell>
        <mxCell id="8YMsaWUEQPvyWmvl6M6F-19" value="+commandLowerClass():void" style="text;strokeColor=none;fillColor=none;align=left;verticalAlign=top;spacingLeft=4;spacingRight=4;overflow=hidden;rotatable=0;points=[[0,0.5],[1,0.5]];portConstraint=eastwest;whiteSpace=wrap;html=1;" parent="8YMsaWUEQPvyWmvl6M6F-16" vertex="1">
          <mxGeometry y="70" width="220" height="30" as="geometry" />
        </mxCell>
        <mxCell id="8YMsaWUEQPvyWmvl6M6F-20" value="&lt;div&gt;&lt;/div&gt;&lt;div&gt;&amp;lt;&amp;lt;enumeration&amp;gt;&amp;gt;&lt;/div&gt;&lt;div&gt;Occupation&lt;/div&gt;" style="swimlane;fontStyle=1;align=center;verticalAlign=top;childLayout=stackLayout;horizontal=1;startSize=40;horizontalStack=0;resizeParent=1;resizeParentMax=0;resizeLast=0;collapsible=1;marginBottom=0;whiteSpace=wrap;html=1;" parent="1" vertex="1">
          <mxGeometry x="245" y="150" width="160" height="168" as="geometry" />
        </mxCell>
        <mxCell id="8YMsaWUEQPvyWmvl6M6F-21" value="&lt;u&gt;+KING&lt;/u&gt;&lt;div&gt;&lt;u&gt;+NOBLE&lt;/u&gt;&lt;/div&gt;&lt;div&gt;&lt;u&gt;+COUNT&lt;/u&gt;&lt;/div&gt;&lt;div&gt;&lt;u&gt;+BARON&lt;/u&gt;&lt;/div&gt;&lt;div&gt;&lt;u&gt;+DUKE&lt;/u&gt;&lt;/div&gt;&lt;div&gt;&lt;u&gt;+VILLAGER&lt;/u&gt;&lt;/div&gt;&lt;div&gt;&lt;u&gt;+JESTER&lt;/u&gt;&lt;/div&gt;&lt;div&gt;&lt;u&gt;+MUSICIAN&lt;/u&gt;&lt;/div&gt;" style="text;strokeColor=none;fillColor=none;align=left;verticalAlign=top;spacingLeft=4;spacingRight=4;overflow=hidden;rotatable=0;points=[[0,0.5],[1,0.5]];portConstraint=eastwest;whiteSpace=wrap;html=1;" parent="8YMsaWUEQPvyWmvl6M6F-20" vertex="1">
          <mxGeometry y="40" width="160" height="120" as="geometry" />
        </mxCell>
        <mxCell id="8YMsaWUEQPvyWmvl6M6F-22" value="" style="line;strokeWidth=1;fillColor=none;align=left;verticalAlign=middle;spacingTop=-1;spacingLeft=3;spacingRight=3;rotatable=0;labelPosition=right;points=[];portConstraint=eastwest;strokeColor=inherit;" parent="8YMsaWUEQPvyWmvl6M6F-20" vertex="1">
          <mxGeometry y="160" width="160" height="8" as="geometry" />
        </mxCell>
        <mxCell id="8YMsaWUEQPvyWmvl6M6F-24" value="&lt;div&gt;&lt;/div&gt;&lt;div&gt;&amp;lt;&amp;lt;interface&amp;gt;&amp;gt;&lt;br&gt;Artist&lt;/div&gt;" style="swimlane;fontStyle=1;align=center;verticalAlign=top;childLayout=stackLayout;horizontal=1;startSize=40;horizontalStack=0;resizeParent=1;resizeParentMax=0;resizeLast=0;collapsible=1;marginBottom=0;whiteSpace=wrap;html=1;" parent="1" vertex="1">
          <mxGeometry x="940" y="740" width="160" height="78" as="geometry" />
        </mxCell>
        <mxCell id="8YMsaWUEQPvyWmvl6M6F-25" value="&lt;i&gt;+entertain(): void;&lt;/i&gt;" style="text;strokeColor=none;fillColor=none;align=left;verticalAlign=top;spacingLeft=4;spacingRight=4;overflow=hidden;rotatable=0;points=[[0,0.5],[1,0.5]];portConstraint=eastwest;whiteSpace=wrap;html=1;" parent="8YMsaWUEQPvyWmvl6M6F-24" vertex="1">
          <mxGeometry y="40" width="160" height="30" as="geometry" />
        </mxCell>
        <mxCell id="8YMsaWUEQPvyWmvl6M6F-26" value="" style="line;strokeWidth=1;fillColor=none;align=left;verticalAlign=middle;spacingTop=-1;spacingLeft=3;spacingRight=3;rotatable=0;labelPosition=right;points=[];portConstraint=eastwest;strokeColor=inherit;" parent="8YMsaWUEQPvyWmvl6M6F-24" vertex="1">
          <mxGeometry y="70" width="160" height="8" as="geometry" />
        </mxCell>
        <mxCell id="8YMsaWUEQPvyWmvl6M6F-27" style="edgeStyle=orthogonalEdgeStyle;rounded=1;orthogonalLoop=1;jettySize=auto;html=1;exitX=0.5;exitY=1;exitDx=0;exitDy=0;entryX=0.25;entryY=0;entryDx=0;entryDy=0;dashed=1;curved=0;" parent="1" source="5AxWNF5T02aPGYcBd2j5-67" target="8YMsaWUEQPvyWmvl6M6F-24" edge="1">
          <mxGeometry relative="1" as="geometry">
            <mxPoint x="970" y="693" as="sourcePoint" />
          </mxGeometry>
        </mxCell>
        <mxCell id="8YMsaWUEQPvyWmvl6M6F-31" style="edgeStyle=orthogonalEdgeStyle;rounded=1;orthogonalLoop=1;jettySize=auto;html=1;exitX=0.5;exitY=1;exitDx=0;exitDy=0;entryX=0.75;entryY=0;entryDx=0;entryDy=0;dashed=1;curved=0;" parent="1" source="5AxWNF5T02aPGYcBd2j5-71" target="8YMsaWUEQPvyWmvl6M6F-24" edge="1">
          <mxGeometry relative="1" as="geometry" />
        </mxCell>
        <mxCell id="cL-bxxUgpNdBFjYDeyzz-2" style="edgeStyle=orthogonalEdgeStyle;rounded=1;orthogonalLoop=1;jettySize=auto;html=1;exitX=0.5;exitY=0;exitDx=0;exitDy=0;entryX=0.476;entryY=0.994;entryDx=0;entryDy=0;entryPerimeter=0;curved=0;" parent="1" source="8YMsaWUEQPvyWmvl6M6F-40" target="8YMsaWUEQPvyWmvl6M6F-19" edge="1">
          <mxGeometry relative="1" as="geometry">
            <mxPoint x="580" y="542" as="targetPoint" />
          </mxGeometry>
        </mxCell>
        <mxCell id="8YMsaWUEQPvyWmvl6M6F-40" value="Noble" style="swimlane;fontStyle=1;align=center;verticalAlign=top;childLayout=stackLayout;horizontal=1;startSize=26;horizontalStack=0;resizeParent=1;resizeParentMax=0;resizeLast=0;collapsible=1;marginBottom=0;whiteSpace=wrap;html=1;" parent="1" vertex="1">
          <mxGeometry x="500" y="612" width="170" height="68" as="geometry" />
        </mxCell>
        <mxCell id="8YMsaWUEQPvyWmvl6M6F-41" value="+isSoldier: boolean;&lt;div&gt;+soldierType: Soldier&lt;/div&gt;" style="text;strokeColor=none;fillColor=none;align=left;verticalAlign=top;spacingLeft=4;spacingRight=4;overflow=hidden;rotatable=0;points=[[0,0.5],[1,0.5]];portConstraint=eastwest;whiteSpace=wrap;html=1;" parent="8YMsaWUEQPvyWmvl6M6F-40" vertex="1">
          <mxGeometry y="26" width="170" height="34" as="geometry" />
        </mxCell>
        <mxCell id="8YMsaWUEQPvyWmvl6M6F-42" value="" style="line;strokeWidth=1;fillColor=none;align=left;verticalAlign=middle;spacingTop=-1;spacingLeft=3;spacingRight=3;rotatable=0;labelPosition=right;points=[];portConstraint=eastwest;strokeColor=inherit;" parent="8YMsaWUEQPvyWmvl6M6F-40" vertex="1">
          <mxGeometry y="60" width="170" height="8" as="geometry" />
        </mxCell>
        <mxCell id="cL-bxxUgpNdBFjYDeyzz-5" value="Instrument" style="swimlane;fontStyle=1;align=center;verticalAlign=top;childLayout=stackLayout;horizontal=1;startSize=30;horizontalStack=0;resizeParent=1;resizeParentMax=0;resizeLast=0;collapsible=1;marginBottom=0;whiteSpace=wrap;html=1;" parent="1" vertex="1">
          <mxGeometry x="680" y="740" width="220" height="90" as="geometry" />
        </mxCell>
        <mxCell id="cL-bxxUgpNdBFjYDeyzz-6" value="+sound: String;" style="text;strokeColor=none;fillColor=none;align=left;verticalAlign=top;spacingLeft=4;spacingRight=4;overflow=hidden;rotatable=0;points=[[0,0.5],[1,0.5]];portConstraint=eastwest;whiteSpace=wrap;html=1;" parent="cL-bxxUgpNdBFjYDeyzz-5" vertex="1">
          <mxGeometry y="30" width="220" height="20" as="geometry" />
        </mxCell>
        <mxCell id="cL-bxxUgpNdBFjYDeyzz-7" value="" style="line;strokeWidth=1;fillColor=none;align=left;verticalAlign=middle;spacingTop=-1;spacingLeft=3;spacingRight=3;rotatable=0;labelPosition=right;points=[];portConstraint=eastwest;strokeColor=inherit;" parent="cL-bxxUgpNdBFjYDeyzz-5" vertex="1">
          <mxGeometry y="50" width="220" height="10" as="geometry" />
        </mxCell>
        <mxCell id="cL-bxxUgpNdBFjYDeyzz-8" value="+play(): void&lt;sub&gt;;&lt;/sub&gt;" style="text;strokeColor=none;fillColor=none;align=left;verticalAlign=top;spacingLeft=4;spacingRight=4;overflow=hidden;rotatable=0;points=[[0,0.5],[1,0.5]];portConstraint=eastwest;whiteSpace=wrap;html=1;" parent="cL-bxxUgpNdBFjYDeyzz-5" vertex="1">
          <mxGeometry y="60" width="220" height="30" as="geometry" />
        </mxCell>
        <mxCell id="YmxFgDObTr9srPSz1VW--9" style="edgeStyle=orthogonalEdgeStyle;rounded=1;orthogonalLoop=1;jettySize=auto;html=1;exitX=0.5;exitY=0;exitDx=0;exitDy=0;entryX=0.75;entryY=1;entryDx=0;entryDy=0;curved=0;endArrow=none;endFill=0;" edge="1" parent="1" source="cL-bxxUgpNdBFjYDeyzz-9" target="5AxWNF5T02aPGYcBd2j5-63">
          <mxGeometry relative="1" as="geometry" />
        </mxCell>
        <mxCell id="cL-bxxUgpNdBFjYDeyzz-9" value="Tool" style="swimlane;fontStyle=1;align=center;verticalAlign=top;childLayout=stackLayout;horizontal=1;startSize=30;horizontalStack=0;resizeParent=1;resizeParentMax=0;resizeLast=0;collapsible=1;marginBottom=0;whiteSpace=wrap;html=1;" parent="1" vertex="1">
          <mxGeometry x="1300" y="840" width="220" height="100" as="geometry" />
        </mxCell>
        <mxCell id="cL-bxxUgpNdBFjYDeyzz-10" value="+ageRequired: int;" style="text;strokeColor=none;fillColor=none;align=left;verticalAlign=top;spacingLeft=4;spacingRight=4;overflow=hidden;rotatable=0;points=[[0,0.5],[1,0.5]];portConstraint=eastwest;whiteSpace=wrap;html=1;" parent="cL-bxxUgpNdBFjYDeyzz-9" vertex="1">
          <mxGeometry y="30" width="220" height="30" as="geometry" />
        </mxCell>
        <mxCell id="cL-bxxUgpNdBFjYDeyzz-11" value="" style="line;strokeWidth=1;fillColor=none;align=left;verticalAlign=middle;spacingTop=-1;spacingLeft=3;spacingRight=3;rotatable=0;labelPosition=right;points=[];portConstraint=eastwest;strokeColor=inherit;" parent="cL-bxxUgpNdBFjYDeyzz-9" vertex="1">
          <mxGeometry y="60" width="220" height="10" as="geometry" />
        </mxCell>
        <mxCell id="cL-bxxUgpNdBFjYDeyzz-12" value="+useTool: void;" style="text;strokeColor=none;fillColor=none;align=left;verticalAlign=top;spacingLeft=4;spacingRight=4;overflow=hidden;rotatable=0;points=[[0,0.5],[1,0.5]];portConstraint=eastwest;whiteSpace=wrap;html=1;" parent="cL-bxxUgpNdBFjYDeyzz-9" vertex="1">
          <mxGeometry y="70" width="220" height="30" as="geometry" />
        </mxCell>
        <mxCell id="YmxFgDObTr9srPSz1VW--7" style="edgeStyle=orthogonalEdgeStyle;rounded=1;orthogonalLoop=1;jettySize=auto;html=1;exitX=0.5;exitY=0;exitDx=0;exitDy=0;entryX=0.5;entryY=1;entryDx=0;entryDy=0;curved=0;endArrow=none;endFill=0;" edge="1" parent="1" source="cL-bxxUgpNdBFjYDeyzz-13" target="5AxWNF5T02aPGYcBd2j5-76">
          <mxGeometry relative="1" as="geometry" />
        </mxCell>
        <mxCell id="cL-bxxUgpNdBFjYDeyzz-13" value="Weapon" style="swimlane;fontStyle=1;align=center;verticalAlign=top;childLayout=stackLayout;horizontal=1;startSize=30;horizontalStack=0;resizeParent=1;resizeParentMax=0;resizeLast=0;collapsible=1;marginBottom=0;whiteSpace=wrap;html=1;" parent="1" vertex="1">
          <mxGeometry x="700" y="1049" width="220" height="120" as="geometry" />
        </mxCell>
        <mxCell id="cL-bxxUgpNdBFjYDeyzz-14" value="+attackType: String;&lt;div&gt;+weight: float;&lt;/div&gt;&lt;div&gt;+allowedClass: Occupation;&lt;/div&gt;" style="text;strokeColor=none;fillColor=none;align=left;verticalAlign=top;spacingLeft=4;spacingRight=4;overflow=hidden;rotatable=0;points=[[0,0.5],[1,0.5]];portConstraint=eastwest;whiteSpace=wrap;html=1;" parent="cL-bxxUgpNdBFjYDeyzz-13" vertex="1">
          <mxGeometry y="30" width="220" height="50" as="geometry" />
        </mxCell>
        <mxCell id="cL-bxxUgpNdBFjYDeyzz-15" value="" style="line;strokeWidth=1;fillColor=none;align=left;verticalAlign=middle;spacingTop=-1;spacingLeft=3;spacingRight=3;rotatable=0;labelPosition=right;points=[];portConstraint=eastwest;strokeColor=inherit;" parent="cL-bxxUgpNdBFjYDeyzz-13" vertex="1">
          <mxGeometry y="80" width="220" height="10" as="geometry" />
        </mxCell>
        <mxCell id="cL-bxxUgpNdBFjYDeyzz-16" value="+attack(): void;" style="text;strokeColor=none;fillColor=none;align=left;verticalAlign=top;spacingLeft=4;spacingRight=4;overflow=hidden;rotatable=0;points=[[0,0.5],[1,0.5]];portConstraint=eastwest;whiteSpace=wrap;html=1;" parent="cL-bxxUgpNdBFjYDeyzz-13" vertex="1">
          <mxGeometry y="90" width="220" height="30" as="geometry" />
        </mxCell>
        <mxCell id="cL-bxxUgpNdBFjYDeyzz-17" value="Person&lt;div&gt;{abstract}&lt;/div&gt;" style="swimlane;fontStyle=1;align=center;verticalAlign=top;childLayout=stackLayout;horizontal=1;startSize=40;horizontalStack=0;resizeParent=1;resizeParentMax=0;resizeLast=0;collapsible=1;marginBottom=0;whiteSpace=wrap;html=1;" parent="1" vertex="1">
          <mxGeometry x="660" y="30" width="220" height="330" as="geometry">
            <mxRectangle x="827" y="-170" width="90" height="40" as="alternateBounds" />
          </mxGeometry>
        </mxCell>
        <mxCell id="cL-bxxUgpNdBFjYDeyzz-18" value="&lt;div&gt;+firstname: String;&lt;/div&gt;&lt;div&gt;+paternalSurname: String;&lt;/div&gt;&lt;div&gt;+maternalSurname: String;&lt;/div&gt;&lt;div&gt;+gender: boolean;&lt;/div&gt;&lt;div&gt;+royalBlood: boolean;&lt;/div&gt;&lt;div&gt;+darknessInside: boolean;&lt;/div&gt;&lt;div&gt;+banished: boolean;&lt;/div&gt;&lt;div&gt;+hasEducation: boolean;&lt;/div&gt;&lt;div&gt;+wage: float;&lt;/div&gt;&lt;div&gt;+fortune: float;&lt;/div&gt;&lt;div&gt;+taxes: float;&lt;/div&gt;&lt;div&gt;+kingdom: Kingdom;&lt;/div&gt;&lt;div&gt;+occupation: Occupation;&lt;/div&gt;&lt;div&gt;+healthState: HealthState;&lt;/div&gt;" style="text;strokeColor=none;fillColor=none;align=left;verticalAlign=top;spacingLeft=4;spacingRight=4;overflow=hidden;rotatable=0;points=[[0,0.5],[1,0.5]];portConstraint=eastwest;whiteSpace=wrap;html=1;" parent="cL-bxxUgpNdBFjYDeyzz-17" vertex="1">
          <mxGeometry y="40" width="220" height="210" as="geometry" />
        </mxCell>
        <mxCell id="cL-bxxUgpNdBFjYDeyzz-19" value="" style="line;strokeWidth=1;fillColor=none;align=left;verticalAlign=middle;spacingTop=-1;spacingLeft=3;spacingRight=3;rotatable=0;labelPosition=right;points=[];portConstraint=eastwest;strokeColor=inherit;" parent="cL-bxxUgpNdBFjYDeyzz-17" vertex="1">
          <mxGeometry y="250" width="220" height="10" as="geometry" />
        </mxCell>
        <mxCell id="cL-bxxUgpNdBFjYDeyzz-20" value="+&lt;i&gt;payTaxes():float;&lt;/i&gt;&lt;div&gt;&lt;i&gt;+betrayKingdom(): float:&lt;/i&gt;&lt;/div&gt;&lt;div&gt;&lt;i&gt;+inheritThrone(): boolean;&lt;/i&gt;&lt;/div&gt;&lt;div&gt;&lt;i&gt;+unearthSword(): boolean;&lt;/i&gt;&lt;/div&gt;" style="text;strokeColor=none;fillColor=none;align=left;verticalAlign=top;spacingLeft=4;spacingRight=4;overflow=hidden;rotatable=0;points=[[0,0.5],[1,0.5]];portConstraint=eastwest;whiteSpace=wrap;html=1;" parent="cL-bxxUgpNdBFjYDeyzz-17" vertex="1">
          <mxGeometry y="260" width="220" height="70" as="geometry" />
        </mxCell>
        <mxCell id="cL-bxxUgpNdBFjYDeyzz-21" value="&lt;div&gt;&lt;/div&gt;&lt;div&gt;&amp;lt;&amp;lt;enumeration&amp;gt;&amp;gt;&lt;/div&gt;&lt;div&gt;HealthState&lt;/div&gt;" style="swimlane;fontStyle=1;align=center;verticalAlign=top;childLayout=stackLayout;horizontal=1;startSize=40;horizontalStack=0;resizeParent=1;resizeParentMax=0;resizeLast=0;collapsible=1;marginBottom=0;whiteSpace=wrap;html=1;" parent="1" vertex="1">
          <mxGeometry x="1051" y="280" width="160" height="88" as="geometry" />
        </mxCell>
        <mxCell id="cL-bxxUgpNdBFjYDeyzz-22" value="&lt;u&gt;+HEALTHY&lt;/u&gt;&lt;div&gt;&lt;u&gt;+PLAGUED&lt;/u&gt;&lt;/div&gt;" style="text;strokeColor=none;fillColor=none;align=left;verticalAlign=top;spacingLeft=4;spacingRight=4;overflow=hidden;rotatable=0;points=[[0,0.5],[1,0.5]];portConstraint=eastwest;whiteSpace=wrap;html=1;" parent="cL-bxxUgpNdBFjYDeyzz-21" vertex="1">
          <mxGeometry y="40" width="160" height="40" as="geometry" />
        </mxCell>
        <mxCell id="cL-bxxUgpNdBFjYDeyzz-23" value="" style="line;strokeWidth=1;fillColor=none;align=left;verticalAlign=middle;spacingTop=-1;spacingLeft=3;spacingRight=3;rotatable=0;labelPosition=right;points=[];portConstraint=eastwest;strokeColor=inherit;" parent="cL-bxxUgpNdBFjYDeyzz-21" vertex="1">
          <mxGeometry y="80" width="160" height="8" as="geometry" />
        </mxCell>
        <mxCell id="cL-bxxUgpNdBFjYDeyzz-25" style="edgeStyle=orthogonalEdgeStyle;rounded=1;orthogonalLoop=1;jettySize=auto;html=1;exitX=0;exitY=0.5;exitDx=0;exitDy=0;entryX=1;entryY=0.25;entryDx=0;entryDy=0;dashed=1;curved=0;" parent="1" source="cL-bxxUgpNdBFjYDeyzz-20" target="8YMsaWUEQPvyWmvl6M6F-20" edge="1">
          <mxGeometry relative="1" as="geometry" />
        </mxCell>
        <mxCell id="cL-bxxUgpNdBFjYDeyzz-26" style="edgeStyle=orthogonalEdgeStyle;rounded=1;orthogonalLoop=1;jettySize=auto;html=1;curved=0;" parent="1" source="5AxWNF5T02aPGYcBd2j5-55" target="cL-bxxUgpNdBFjYDeyzz-20" edge="1">
          <mxGeometry relative="1" as="geometry">
            <mxPoint x="720" y="367" as="targetPoint" />
            <Array as="points">
              <mxPoint x="360" y="382" />
              <mxPoint x="720" y="382" />
            </Array>
          </mxGeometry>
        </mxCell>
        <mxCell id="YmxFgDObTr9srPSz1VW--1" style="edgeStyle=orthogonalEdgeStyle;rounded=1;orthogonalLoop=1;jettySize=auto;html=1;exitX=1;exitY=0.5;exitDx=0;exitDy=0;entryX=0;entryY=0.108;entryDx=0;entryDy=0;entryPerimeter=0;endArrow=none;endFill=0;curved=0;" edge="1" parent="1" source="5AxWNF5T02aPGYcBd2j5-81" target="cL-bxxUgpNdBFjYDeyzz-20">
          <mxGeometry relative="1" as="geometry">
            <Array as="points">
              <mxPoint x="570" y="73" />
              <mxPoint x="570" y="298" />
              <mxPoint x="660" y="298" />
            </Array>
          </mxGeometry>
        </mxCell>
        <mxCell id="YmxFgDObTr9srPSz1VW--5" style="edgeStyle=orthogonalEdgeStyle;rounded=1;orthogonalLoop=1;jettySize=auto;html=1;exitX=0.5;exitY=0;exitDx=0;exitDy=0;entryX=0.269;entryY=0.938;entryDx=0;entryDy=0;entryPerimeter=0;curved=0;endArrow=none;endFill=0;" edge="1" parent="1" source="cL-bxxUgpNdBFjYDeyzz-5" target="5AxWNF5T02aPGYcBd2j5-69">
          <mxGeometry relative="1" as="geometry" />
        </mxCell>
      </root>
    </mxGraphModel>
  </diagram>
</mxfile>
